# Blender v2.76 (sub 0) OBJ File: 'tile1.blend'
# www.blender.org
mtllib tile.mtl
o Cube_Cube.002
v -0.401806 0.744483 0.519896
v 0.401806 0.744483 0.519896
v 0.401806 0.744483 0.061401
v 0.401806 -0.744483 0.519896
v -0.401806 -0.744483 0.519896
v -0.401806 -0.744483 0.061401
v -0.484000 0.650483 0.061401
v -0.484000 -0.650483 0.061401
v -0.484000 -0.650483 0.519896
v 0.484000 0.650483 0.519896
v 0.484000 -0.650483 0.519896
v 0.484000 -0.650483 0.061401
v -0.401806 0.650483 0.625319
v -0.401806 -0.650483 0.625319
v 0.401806 -0.650483 0.625318
v 0.459926 -0.650483 0.594441
v 0.449261 -0.704754 0.580762
v 0.401806 -0.716951 0.594441
v 0.459926 -0.716951 0.519896
v 0.401806 0.716951 0.594441
v 0.449261 0.704754 0.580762
v 0.401806 0.650483 0.625318
v 0.459926 0.650483 0.594441
v 0.459926 0.716951 0.519896
v -0.459926 -0.716951 0.519896
v -0.449261 -0.704754 0.580762
v -0.401806 -0.716951 0.594441
v -0.459926 -0.650483 0.594441
v -0.459926 0.716951 0.519896
v -0.449261 0.704754 0.580762
v -0.484000 0.650483 0.519896
v -0.459926 0.650483 0.594441
v -0.401806 0.716951 0.594441
v 0.484000 0.650483 -0.044022
v 0.459926 0.716951 -0.044022
v 0.459926 0.716951 0.061401
v 0.401806 0.744483 -0.044022
v 0.459926 -0.716951 0.061401
v 0.459926 -0.716951 -0.044022
v 0.401806 -0.744483 0.061401
v 0.401806 -0.744483 -0.044022
v -0.459926 0.716951 0.061401
v -0.459926 0.716951 -0.044022
v -0.401806 0.744483 0.061401
v -0.401806 0.744483 -0.044022
v -0.484000 -0.650483 -0.044022
v -0.459926 -0.716951 -0.044022
v -0.459926 -0.716951 0.061401
v -0.401806 -0.744483 -0.044022
v 0.484000 -0.650483 -0.044022
v 0.484000 0.650483 0.061401
v -0.484000 0.650483 -0.044022
v -0.401806 0.744483 -0.149444
v 0.401806 0.744483 -0.149444
v 0.401806 0.744483 -0.237259
v -0.484000 0.650483 -0.237259
v -0.484000 -0.650483 -0.237259
v -0.484000 -0.650483 -0.149444
v 0.401806 0.650483 -0.342681
v 0.401806 -0.650483 -0.342681
v -0.401806 -0.650483 -0.342681
v 0.401806 -0.744483 -0.149444
v -0.401806 -0.744483 -0.149444
v -0.401806 -0.744483 -0.237259
v 0.459926 -0.650483 -0.311804
v 0.449261 -0.704754 -0.298125
v 0.484000 -0.650483 -0.237259
v 0.459926 -0.716951 -0.237259
v 0.401806 -0.744483 -0.237259
v 0.401806 -0.716951 -0.311804
v 0.484000 0.650483 -0.237259
v 0.459926 0.650483 -0.311804
v 0.449261 0.704754 -0.298125
v 0.401806 0.716951 -0.311804
v 0.459926 0.716951 -0.237259
v -0.459926 -0.650483 -0.311804
v -0.449261 -0.704754 -0.298125
v -0.401806 -0.716951 -0.311804
v -0.459926 -0.716951 -0.237259
v -0.401806 0.744483 -0.237259
v -0.401806 0.716951 -0.311804
v -0.449261 0.704754 -0.298125
v -0.401806 0.650483 -0.342681
v -0.459926 0.650483 -0.311804
v -0.459926 0.716951 -0.237259
v 0.484000 0.650483 -0.149444
v 0.459926 0.716951 -0.149444
v 0.459926 -0.716951 -0.149444
v -0.459926 0.716951 -0.149444
v -0.459926 -0.716951 -0.149444
v 0.484000 -0.650483 -0.149444
v -0.484000 0.650483 -0.149444
vt 0.000000 0.000000
vt 1.000000 0.000000
vt 1.000000 1.001259
vt -0.000000 1.001258
vt 0.000000 0.002098
vn 0.000000 1.000000 0.000000
vn 0.000000 -1.000000 0.000000
vn -1.000000 0.000000 0.000000
vn 1.000000 -0.000000 0.000000
vn 0.920000 -0.255700 0.297100
vn 0.346800 -0.395200 0.850600
vn 0.414700 -0.875500 0.248100
vn 0.322700 0.887900 0.327900
vn 0.447500 0.300300 0.842400
vn 0.915700 0.331700 0.226900
vn -0.915700 -0.331700 0.226900
vn -0.322700 -0.887900 0.327900
vn -0.447500 -0.300300 0.842400
vn -0.414700 0.875500 0.248100
vn -0.920000 0.255700 0.297100
vn -0.346800 0.395200 0.850600
vn 0.940200 0.340500 0.000000
vn 0.428100 0.903700 0.000000
vn 0.940200 -0.340500 -0.000000
vn 0.428100 -0.903700 -0.000000
vn -0.940200 0.340500 0.000000
vn -0.428100 0.903700 0.000000
vn -0.940200 -0.340500 0.000000
vn -0.428100 -0.903700 -0.000000
vn 0.469200 -0.000000 0.883100
vn 0.951600 -0.000000 0.307300
vn 0.000000 0.938100 0.346500
vn 0.000000 0.421300 0.906900
vn -0.951600 -0.000000 0.307300
vn -0.469200 -0.000000 0.883100
vn 0.000000 -0.938100 0.346500
vn 0.000000 -0.421300 0.906900
vn 0.915700 -0.331700 0.226900
vn 0.447500 -0.300300 0.842400
vn 0.322700 -0.887900 0.327900
vn 0.414700 0.875500 0.248100
vn 0.346800 0.395200 0.850600
vn 0.920000 0.255700 0.297100
vn -0.920000 -0.255700 0.297100
vn -0.414700 -0.875500 0.248100
vn -0.346800 -0.395200 0.850600
vn -0.322700 0.887900 0.327900
vn -0.915700 0.331700 0.226900
vn -0.447500 0.300300 0.842400
vn 0.000000 0.000000 -1.000000
vn 0.447500 -0.300300 -0.842400
vn 0.915700 -0.331700 -0.226900
vn 0.322700 -0.887900 -0.327900
vn 0.920000 0.255700 -0.297100
vn 0.346800 0.395200 -0.850600
vn 0.414700 0.875500 -0.248100
vn -0.920000 -0.255700 -0.297100
vn -0.346800 -0.395200 -0.850600
vn -0.414700 -0.875500 -0.248100
vn -0.322700 0.887900 -0.327900
vn -0.447500 0.300300 -0.842400
vn -0.915700 0.331700 -0.226900
vn 0.469200 0.000000 -0.883100
vn 0.951600 0.000000 -0.307300
vn -0.469200 0.000000 -0.883100
vn -0.951600 0.000000 -0.307300
vn 0.000000 0.938100 -0.346500
vn 0.000000 0.421300 -0.906900
vn 0.000000 -0.938100 -0.346500
vn 0.000000 -0.421300 -0.906900
vn 0.346800 -0.395200 -0.850600
vn 0.920000 -0.255700 -0.297100
vn 0.414700 -0.875500 -0.248100
vn 0.915700 0.331700 -0.226900
vn 0.447500 0.300300 -0.842400
vn 0.322700 0.887900 -0.327900
vn -0.915700 -0.331700 -0.226900
vn -0.447500 -0.300300 -0.842400
vn -0.322700 -0.887900 -0.327900
vn -0.414700 0.875500 -0.248100
vn -0.346800 0.395200 -0.850600
vn -0.920000 0.255700 -0.297100
vn 0.000000 -0.000000 1.000000
usemtl FrontTile.001
s 1
f 1/1/1 2/1/1 3/1/1
f 4/1/2 5/1/2 6/1/2
f 7/1/3 8/1/3 9/1/3
f 10/1/4 11/1/4 12/1/4
f 11/1/5 16/1/5 17/1/5
f 15/1/6 18/1/6 17/1/6
f 4/1/7 19/1/7 17/1/7
f 2/1/8 20/1/8 21/1/8
f 22/1/9 23/1/9 21/1/9
f 10/1/10 24/1/10 21/1/10
f 9/1/11 25/1/11 26/1/11
f 5/1/12 27/1/12 26/1/12
f 14/1/13 28/1/13 26/1/13
f 1/1/14 29/1/14 30/1/14
f 31/1/15 32/1/15 30/1/15
f 13/1/16 33/1/16 30/1/16
f 34/1/17 35/1/17 36/1/17
f 36/1/18 35/1/18 37/1/18
f 12/1/19 38/1/19 39/1/19
f 40/1/20 41/1/20 39/1/20
f 7/1/21 42/1/21 43/1/21
f 44/1/22 45/1/22 43/1/22
f 46/1/23 47/1/23 48/1/23
f 48/1/24 47/1/24 49/1/24
f 2/1/18 24/1/18 36/1/18
f 36/1/17 24/1/17 10/1/17
f 15/1/25 16/1/25 23/1/25
f 16/1/26 11/1/26 10/1/26
f 1/1/27 33/1/27 20/1/27
f 33/1/28 13/1/28 22/1/28
f 9/1/29 28/1/29 32/1/29
f 28/1/30 14/1/30 13/1/30
f 4/1/31 18/1/31 27/1/31
f 18/1/32 15/1/32 14/1/32
f 5/1/24 25/1/24 48/1/24
f 48/1/23 25/1/23 9/1/23
f 40/1/20 38/1/20 19/1/20
f 19/1/19 38/1/19 12/1/19
f 44/1/22 42/1/22 29/1/22
f 29/1/21 42/1/21 7/1/21
f 3/1/1 37/1/1 45/1/1
f 6/1/2 49/1/2 41/1/2
f 46/1/3 8/1/3 7/1/3
f 12/1/4 50/1/4 34/1/4
f 44/1/1 1/1/1 3/1/1
f 40/1/2 4/1/2 6/1/2
f 31/1/3 7/1/3 9/1/3
f 51/1/4 10/1/4 12/1/4
f 19/1/33 11/1/33 17/1/33
f 16/1/34 15/1/34 17/1/34
f 18/1/35 4/1/35 17/1/35
f 24/1/36 2/1/36 21/1/36
f 20/1/37 22/1/37 21/1/37
f 23/1/38 10/1/38 21/1/38
f 28/1/39 9/1/39 26/1/39
f 25/1/40 5/1/40 26/1/40
f 27/1/41 14/1/41 26/1/41
f 33/1/42 1/1/42 30/1/42
f 29/1/43 31/1/43 30/1/43
f 32/1/44 13/1/44 30/1/44
f 51/1/17 34/1/17 36/1/17
f 3/1/18 36/1/18 37/1/18
f 50/1/19 12/1/19 39/1/19
f 38/1/20 40/1/20 39/1/20
f 52/1/21 7/1/21 43/1/21
f 42/1/22 44/1/22 43/1/22
f 8/1/23 46/1/23 48/1/23
f 6/1/24 48/1/24 49/1/24
f 3/1/18 2/1/18 36/1/18
f 51/1/17 36/1/17 10/1/17
f 22/1/25 15/1/25 23/1/25
f 23/1/26 16/1/26 10/1/26
f 2/1/27 1/1/27 20/1/27
f 20/1/28 33/1/28 22/1/28
f 31/1/29 9/1/29 32/1/29
f 32/1/30 28/1/30 13/1/30
f 5/1/31 4/1/31 27/1/31
f 27/1/32 18/1/32 14/1/32
f 6/1/24 5/1/24 48/1/24
f 8/1/23 48/1/23 9/1/23
f 4/1/20 40/1/20 19/1/20
f 11/1/19 19/1/19 12/1/19
f 1/1/22 44/1/22 29/1/22
f 31/1/21 29/1/21 7/1/21
f 44/1/1 3/1/1 45/1/1
f 40/1/2 6/1/2 41/1/2
f 52/1/3 46/1/3 7/1/3
f 51/1/4 12/1/4 34/1/4
usemtl BackTile.001
f 53/1/1 54/1/1 55/1/1
f 56/1/3 57/1/3 58/1/3
f 59/1/45 60/1/45 61/1/45
f 62/1/2 63/1/2 64/1/2
f 60/1/46 65/1/46 66/1/46
f 67/1/47 68/1/47 66/1/47
f 69/1/48 70/1/48 66/1/48
f 71/1/49 72/1/49 73/1/49
f 59/1/50 74/1/50 73/1/50
f 55/1/51 75/1/51 73/1/51
f 57/1/52 76/1/52 77/1/52
f 61/1/53 78/1/53 77/1/53
f 64/1/54 79/1/54 77/1/54
f 80/1/55 81/1/55 82/1/55
f 83/1/56 84/1/56 82/1/56
f 56/1/57 85/1/57 82/1/57
f 86/1/17 87/1/17 35/1/17
f 54/1/18 37/1/18 35/1/18
f 50/1/19 39/1/19 88/1/19
f 88/1/20 39/1/20 41/1/20
f 52/1/21 43/1/21 89/1/21
f 89/1/22 43/1/22 45/1/22
f 58/1/23 90/1/23 47/1/23
f 63/1/24 49/1/24 47/1/24
f 59/1/58 72/1/58 65/1/58
f 72/1/59 71/1/59 67/1/59
f 69/1/20 68/1/20 88/1/20
f 68/1/19 67/1/19 91/1/19
f 80/1/22 85/1/22 89/1/22
f 85/1/21 56/1/21 92/1/21
f 61/1/60 76/1/60 84/1/60
f 76/1/61 57/1/61 56/1/61
f 55/1/62 74/1/62 81/1/62
f 74/1/63 59/1/63 83/1/63
f 64/1/64 78/1/64 70/1/64
f 78/1/65 61/1/65 60/1/65
f 55/1/18 54/1/18 87/1/18
f 75/1/17 87/1/17 86/1/17
f 64/1/24 63/1/24 90/1/24
f 79/1/23 90/1/23 58/1/23
f 37/1/1 54/1/1 53/1/1
f 49/1/2 63/1/2 62/1/2
f 58/1/3 46/1/3 52/1/3
f 50/1/4 91/1/4 86/1/4
f 86/1/4 91/1/4 67/1/4
f 80/1/1 53/1/1 55/1/1
f 92/1/3 56/1/3 58/1/3
f 83/1/45 59/1/45 61/1/45
f 69/1/2 62/1/2 64/1/2
f 70/1/66 60/1/66 66/1/66
f 65/1/67 67/1/67 66/1/67
f 68/1/68 69/1/68 66/1/68
f 75/1/69 71/1/69 73/1/69
f 72/1/70 59/1/70 73/1/70
f 74/1/71 55/1/71 73/1/71
f 79/1/72 57/1/72 77/1/72
f 76/1/73 61/1/73 77/1/73
f 78/1/74 64/1/74 77/1/74
f 85/1/75 80/1/75 82/1/75
f 81/1/76 83/1/76 82/1/76
f 84/1/77 56/1/77 82/1/77
f 34/1/17 86/1/17 35/1/17
f 87/1/18 54/1/18 35/1/18
f 91/1/19 50/1/19 88/1/19
f 62/1/20 88/1/20 41/1/20
f 92/1/21 52/1/21 89/1/21
f 53/1/22 89/1/22 45/1/22
f 46/1/23 58/1/23 47/1/23
f 90/1/24 63/1/24 47/1/24
f 60/1/58 59/1/58 65/1/58
f 65/1/59 72/1/59 67/1/59
f 62/1/20 69/1/20 88/1/20
f 88/1/19 68/1/19 91/1/19
f 53/1/22 80/1/22 89/1/22
f 89/1/21 85/1/21 92/1/21
f 83/1/60 61/1/60 84/1/60
f 84/1/61 76/1/61 56/1/61
f 80/1/62 55/1/62 81/1/62
f 81/1/63 74/1/63 83/1/63
f 69/1/64 64/1/64 70/1/64
f 70/1/65 78/1/65 60/1/65
f 75/1/18 55/1/18 87/1/18
f 71/1/17 75/1/17 86/1/17
f 79/1/24 64/1/24 90/1/24
f 57/1/23 79/1/23 58/1/23
f 45/1/1 37/1/1 53/1/1
f 41/1/2 49/1/2 62/1/2
f 92/1/3 58/1/3 52/1/3
f 34/1/4 50/1/4 86/1/4
f 71/1/4 86/1/4 67/1/4
usemtl TileImage.001
f 13/2/78 14/3/78 15/4/78
f 22/5/78 13/2/78 15/4/78
