# Blender v2.76 (sub 0) OBJ File: 'tile1.blend'
# www.blender.org
mtllib tile.mtl
o Cube_Cube.002
v 0.401806 -0.650483 -0.342681
v 0.484000 -0.650483 -0.237259
v 0.401806 -0.744483 -0.237259
v 0.459926 -0.650483 -0.311804
v 0.449261 -0.704754 -0.298125
v 0.459926 -0.716951 -0.237259
v 0.401806 -0.716951 -0.311804
v 0.484000 0.650483 -0.237259
v 0.401806 0.650483 -0.342681
v 0.401806 0.744483 -0.237259
v 0.459926 0.650483 -0.311804
v 0.449261 0.704754 -0.298125
v 0.401806 0.716951 -0.311804
v 0.459926 0.716951 -0.237259
v 0.484000 -0.650483 0.519896
v 0.401806 -0.650483 0.625318
v 0.401806 -0.744483 0.519896
v 0.459926 -0.650483 0.594441
v 0.449261 -0.704754 0.580762
v 0.401806 -0.716951 0.594441
v 0.459926 -0.716951 0.519896
v 0.401806 0.744483 0.519896
v 0.401806 0.650483 0.625318
v 0.484000 0.650483 0.519896
v 0.401806 0.716951 0.594441
v 0.449261 0.704754 0.580762
v 0.459926 0.650483 0.594441
v 0.459926 0.716951 0.519896
v -0.484000 -0.650483 -0.237259
v -0.401806 -0.650483 -0.342681
v -0.401806 -0.744483 -0.237259
v -0.459926 -0.650483 -0.311804
v -0.449261 -0.704754 -0.298125
v -0.401806 -0.716951 -0.311804
v -0.459926 -0.716951 -0.237259
v -0.401806 0.744483 -0.237259
v -0.401806 0.650483 -0.342681
v -0.484000 0.650483 -0.237259
v -0.401806 0.716951 -0.311804
v -0.449261 0.704754 -0.298125
v -0.459926 0.650483 -0.311804
v -0.459926 0.716951 -0.237259
v -0.484000 -0.650483 0.519896
v -0.401806 -0.744483 0.519896
v -0.401806 -0.650483 0.625319
v -0.459926 -0.716951 0.519896
v -0.449261 -0.704754 0.580762
v -0.401806 -0.716951 0.594441
v -0.459926 -0.650483 0.594441
v -0.401806 0.744483 0.519896
v -0.484000 0.650483 0.519896
v -0.401806 0.650483 0.625319
v -0.459926 0.716951 0.519896
v -0.449261 0.704754 0.580762
v -0.459926 0.650483 0.594441
v -0.401806 0.716951 0.594441
v 0.484000 0.650483 0.061401
v 0.484000 0.650483 -0.149444
v 0.401806 0.744483 -0.149444
v 0.401806 0.744483 0.061401
v 0.484000 0.650483 -0.044022
v 0.459926 0.716951 -0.044022
v 0.459926 0.716951 -0.149444
v 0.401806 0.744483 -0.044022
v 0.459926 0.716951 0.061401
v 0.484000 -0.650483 -0.149444
v 0.484000 -0.650483 0.061401
v 0.401806 -0.744483 0.061401
v 0.401806 -0.744483 -0.149444
v 0.484000 -0.650483 -0.044022
v 0.459926 -0.716951 -0.044022
v 0.459926 -0.716951 0.061401
v 0.401806 -0.744483 -0.044022
v 0.459926 -0.716951 -0.149444
v -0.484000 0.650483 -0.149444
v -0.484000 0.650483 0.061401
v -0.401806 0.744483 0.061401
v -0.401806 0.744483 -0.149444
v -0.484000 0.650483 -0.044022
v -0.459926 0.716951 -0.044022
v -0.459926 0.716951 0.061401
v -0.401806 0.744483 -0.044022
v -0.459926 0.716951 -0.149444
v -0.484000 -0.650483 0.061401
v -0.484000 -0.650483 -0.149444
v -0.401806 -0.744483 -0.149444
v -0.401806 -0.744483 0.061401
v -0.484000 -0.650483 -0.044022
v -0.459926 -0.716951 -0.044022
v -0.459926 -0.716951 -0.149444
v -0.401806 -0.744483 -0.044022
v -0.459926 -0.716951 0.061401
vn -0.000000 1.000000 0.000000
vn 0.000000 -1.000000 0.000000
vn -1.000000 -0.000000 0.000000
vn 1.000000 0.000000 -0.000000
vn 0.000000 0.000000 1.000000
vn 0.920000 -0.255700 0.297100
vn 0.346800 -0.395200 0.850600
vn 0.414700 -0.875500 0.248100
vn 0.322700 0.887900 0.327900
vn 0.447500 0.300300 0.842400
vn 0.915700 0.331700 0.226900
vn -0.915700 -0.331700 0.226900
vn -0.322700 -0.887900 0.327900
vn -0.447500 -0.300300 0.842400
vn -0.414700 0.875500 0.248100
vn -0.920000 0.255700 0.297100
vn -0.346800 0.395200 0.850600
vn 0.940200 0.340500 0.000000
vn 0.428100 0.903700 0.000000
vn 0.940200 -0.340500 0.000000
vn 0.428100 -0.903700 0.000000
vn -0.940200 0.340500 0.000000
vn -0.428100 0.903700 0.000000
vn -0.940200 -0.340500 0.000000
vn -0.428100 -0.903700 0.000000
vn 0.469200 0.000000 0.883100
vn 0.951600 0.000000 0.307300
vn -0.000000 0.938100 0.346500
vn -0.000000 0.421300 0.906900
vn -0.951600 -0.000000 0.307300
vn -0.469200 -0.000000 0.883100
vn 0.000000 -0.938100 0.346500
vn 0.000000 -0.421300 0.906900
vn 0.915700 -0.331700 0.226900
vn 0.447500 -0.300300 0.842400
vn 0.322700 -0.887900 0.327900
vn 0.414700 0.875500 0.248100
vn 0.346800 0.395200 0.850600
vn 0.920000 0.255700 0.297100
vn -0.920000 -0.255700 0.297100
vn -0.414700 -0.875500 0.248100
vn -0.346800 -0.395200 0.850600
vn -0.322700 0.887900 0.327900
vn -0.915700 0.331700 0.226900
vn -0.447500 0.300300 0.842400
vn -0.000000 -0.000000 -1.000000
vn 0.447500 -0.300300 -0.842400
vn 0.915700 -0.331700 -0.226900
vn 0.322700 -0.887900 -0.327900
vn 0.920000 0.255700 -0.297100
vn 0.346800 0.395200 -0.850600
vn 0.414700 0.875500 -0.248100
vn -0.920000 -0.255700 -0.297100
vn -0.346800 -0.395200 -0.850600
vn -0.414700 -0.875500 -0.248100
vn -0.322700 0.887900 -0.327900
vn -0.447500 0.300300 -0.842400
vn -0.915700 0.331700 -0.226900
vn 0.469200 0.000000 -0.883100
vn 0.951600 0.000000 -0.307300
vn -0.469200 -0.000000 -0.883100
vn -0.951600 -0.000000 -0.307300
vn -0.000000 0.938100 -0.346500
vn -0.000000 0.421300 -0.906900
vn 0.000000 -0.938100 -0.346500
vn -0.000000 -0.421300 -0.906900
vn 0.346800 -0.395200 -0.850600
vn 0.920000 -0.255700 -0.297100
vn 0.414700 -0.875500 -0.248100
vn 0.915700 0.331700 -0.226900
vn 0.447500 0.300300 -0.842400
vn 0.322700 0.887900 -0.327900
vn -0.915700 -0.331700 -0.226900
vn -0.447500 -0.300300 -0.842400
vn -0.322700 -0.887900 -0.327900
vn -0.414700 0.875500 -0.248100
vn -0.346800 0.395200 -0.850600
vn -0.920000 0.255700 -0.297100
usemtl FrontTile
s off
f 50//1 22//1 60//1
f 17//2 44//2 87//2
f 76//3 84//3 43//3
f 24//4 15//4 67//4
f 52//5 45//5 16//5
f 15//6 18//6 19//6
f 16//7 20//7 19//7
f 17//8 21//8 19//8
f 22//9 25//9 26//9
f 23//10 27//10 26//10
f 24//11 28//11 26//11
f 43//12 46//12 47//12
f 44//13 48//13 47//13
f 45//14 49//14 47//14
f 50//15 53//15 54//15
f 51//16 55//16 54//16
f 52//17 56//17 54//17
f 61//18 62//18 65//18
f 65//19 62//19 64//19
f 67//20 72//20 71//20
f 68//21 73//21 71//21
f 76//22 81//22 80//22
f 77//23 82//23 80//23
f 88//24 89//24 92//24
f 92//25 89//25 91//25
f 22//19 28//19 65//19
f 65//18 28//18 24//18
f 16//26 18//26 27//26
f 18//27 15//27 24//27
f 50//28 56//28 25//28
f 56//29 52//29 23//29
f 43//30 49//30 55//30
f 49//31 45//31 52//31
f 17//32 20//32 48//32
f 20//33 16//33 45//33
f 44//25 46//25 92//25
f 92//24 46//24 43//24
f 68//21 72//21 21//21
f 21//20 72//20 67//20
f 77//23 81//23 53//23
f 53//22 81//22 76//22
f 60//1 64//1 82//1
f 87//2 91//2 73//2
f 88//3 84//3 76//3
f 67//4 70//4 61//4
f 77//1 50//1 60//1
f 68//2 17//2 87//2
f 51//3 76//3 43//3
f 57//4 24//4 67//4
f 23//5 52//5 16//5
f 21//34 15//34 19//34
f 18//35 16//35 19//35
f 20//36 17//36 19//36
f 28//37 22//37 26//37
f 25//38 23//38 26//38
f 27//39 24//39 26//39
f 49//40 43//40 47//40
f 46//41 44//41 47//41
f 48//42 45//42 47//42
f 56//43 50//43 54//43
f 53//44 51//44 54//44
f 55//45 52//45 54//45
f 57//18 61//18 65//18
f 60//19 65//19 64//19
f 70//20 67//20 71//20
f 72//21 68//21 71//21
f 79//22 76//22 80//22
f 81//23 77//23 80//23
f 84//24 88//24 92//24
f 87//25 92//25 91//25
f 60//19 22//19 65//19
f 57//18 65//18 24//18
f 23//26 16//26 27//26
f 27//27 18//27 24//27
f 22//28 50//28 25//28
f 25//29 56//29 23//29
f 51//30 43//30 55//30
f 55//31 49//31 52//31
f 44//32 17//32 48//32
f 48//33 20//33 45//33
f 87//25 44//25 92//25
f 84//24 92//24 43//24
f 17//21 68//21 21//21
f 15//20 21//20 67//20
f 50//23 77//23 53//23
f 51//22 53//22 76//22
f 77//1 60//1 82//1
f 68//2 87//2 73//2
f 79//3 88//3 76//3
f 57//4 67//4 61//4
usemtl BackTile
f 78//1 59//1 10//1
f 38//3 29//3 85//3
f 9//46 1//46 30//46
f 69//2 86//2 31//2
f 1//47 4//47 5//47
f 2//48 6//48 5//48
f 3//49 7//49 5//49
f 8//50 11//50 12//50
f 9//51 13//51 12//51
f 10//52 14//52 12//52
f 29//53 32//53 33//53
f 30//54 34//54 33//54
f 31//55 35//55 33//55
f 36//56 39//56 40//56
f 37//57 41//57 40//57
f 38//58 42//58 40//58
f 58//18 63//18 62//18
f 59//19 64//19 62//19
f 70//20 71//20 74//20
f 74//21 71//21 73//21
f 79//22 80//22 83//22
f 83//23 80//23 82//23
f 85//24 90//24 89//24
f 86//25 91//25 89//25
f 9//59 11//59 4//59
f 11//60 8//60 2//60
f 3//21 6//21 74//21
f 6//20 2//20 66//20
f 36//23 42//23 83//23
f 42//22 38//22 75//22
f 30//61 32//61 41//61
f 32//62 29//62 38//62
f 10//63 13//63 39//63
f 13//64 9//64 37//64
f 31//65 34//65 7//65
f 34//66 30//66 1//66
f 10//19 59//19 63//19
f 14//18 63//18 58//18
f 31//25 86//25 90//25
f 35//24 90//24 85//24
f 64//1 59//1 78//1
f 91//2 86//2 69//2
f 85//3 88//3 79//3
f 70//4 66//4 58//4
f 58//4 66//4 2//4
f 36//1 78//1 10//1
f 75//3 38//3 85//3
f 37//46 9//46 30//46
f 3//2 69//2 31//2
f 7//67 1//67 5//67
f 4//68 2//68 5//68
f 6//69 3//69 5//69
f 14//70 8//70 12//70
f 11//71 9//71 12//71
f 13//72 10//72 12//72
f 35//73 29//73 33//73
f 32//74 30//74 33//74
f 34//75 31//75 33//75
f 42//76 36//76 40//76
f 39//77 37//77 40//77
f 41//78 38//78 40//78
f 61//18 58//18 62//18
f 63//19 59//19 62//19
f 66//20 70//20 74//20
f 69//21 74//21 73//21
f 75//22 79//22 83//22
f 78//23 83//23 82//23
f 88//24 85//24 89//24
f 90//25 86//25 89//25
f 1//59 9//59 4//59
f 4//60 11//60 2//60
f 69//21 3//21 74//21
f 74//20 6//20 66//20
f 78//23 36//23 83//23
f 83//22 42//22 75//22
f 37//61 30//61 41//61
f 41//62 32//62 38//62
f 36//63 10//63 39//63
f 39//64 13//64 37//64
f 3//65 31//65 7//65
f 7//66 34//66 1//66
f 14//19 10//19 63//19
f 8//18 14//18 58//18
f 35//25 31//25 90//25
f 29//24 35//24 85//24
f 82//1 64//1 78//1
f 73//2 91//2 69//2
f 75//3 85//3 79//3
f 61//4 70//4 58//4
f 8//4 58//4 2//4
